<?xml version="1.0"?>
<svg xmlns="http://www.w3.org/2000/svg" height="512px" viewBox="0 0 512 512" width="512px" class=""><g><path d="m256 0c-141.484375 0-256 114.496094-256 256 0 141.484375 114.496094 256 256 256 141.484375 0 256-114.496094 256-256 0-141.484375-114.496094-256-256-256zm0 472c-119.378906 0-216-96.605469-216-216 0-119.378906 96.605469-216 216-216 119.378906 0 216 96.605469 216 216 0 119.378906-96.605469 216-216 216zm74.601562-277.949219c-1.992187-5.972656-6.679687-10.660156-12.652343-12.652343l-166.875-55.625c-15.59375-5.199219-30.507813 9.675781-25.300781 25.300781l55.625 166.875c1.992187 5.972656 6.679687 10.660156 12.652343 12.652343l166.875 55.625c15.601563 5.199219 30.503907-9.679687 25.300781-25.300781zm-114.414062 101.761719-39.816406-119.441406 119.445312 39.8125 39.8125 119.445312zm0 0" data-original="#000000" class="active-path" data-old_color="#000000" fill="#09D3AC"/></g> </svg>
