<?xml version="1.0"?>
<svg xmlns="http://www.w3.org/2000/svg" height="512px" viewBox="0 -23 512 512" width="512px" class=""><g><path d="m0 244.03125h110.023438v131.746094h-110.023438zm0 0" data-original="#000000" class="active-path" data-old_color="#000000" fill="#09D3AC"/><path d="m0 405.546875h110.023438v60.480469h-110.023438zm0 0" data-original="#000000" class="active-path" data-old_color="#000000" fill="#2F2F2F"/><path d="m0 10.132812h110.023438v55.566407h-110.023438zm0 0" data-original="#000000" class="active-path" data-old_color="#000000" fill="#09D3AC"/><path d="m110.023438 95.46875h-110.023438v118.792969h110.023438zm-55.578126 92.347656c-14.027343 0-23.824218-14.496094-23.824218-35.257812 0-20.761719 9.796875-35.261719 23.824218-35.261719 14.027344 0 23.828126 14.5 23.828126 35.261719 0 20.761718-9.796876 35.257812-23.828126 35.257812zm0 0" data-original="#000000" class="active-path" data-old_color="#000000" fill="#09D3AC"/><path d="m140.023438 244.03125h110.027343v131.746094h-110.027343zm0 0" data-original="#000000" class="active-path" data-old_color="#000000" fill="#09D3AC"/><path d="m140.023438 95.46875v118.792969h110.027343v-118.792969zm55.074218 92.347656c-14.03125 0-23.828125-14.496094-23.828125-35.257812 0-20.761719 9.796875-35.261719 23.828125-35.261719 14.027344 0 23.824219 14.5 23.824219 35.261719 0 20.761718-9.796875 35.257812-23.824219 35.257812zm0 0" data-original="#000000" class="active-path" data-old_color="#000000" fill="#09D3AC"/><path d="m140.023438 405.546875h110.027343v60.480469h-110.027343zm0 0" data-original="#000000" class="active-path" data-old_color="#000000" fill="#09D3AC"/><path d="m245.425781 65.699219 10.027344 25.421875.546875-.21875 107.792969-42.558594-19.070313-48.34375-94.671875 35.789062v-25.65625h-110.027343v55.566407zm0 0" data-original="#000000" class="active-path" data-old_color="#000000" fill="#09D3AC"/><path d="m374.714844 76.035156-108.339844 42.773438 39.472656 100.078125 109.074219-40.90625zm-7.476563 83.175782c-.75 14.640624-9.609375 19.550781-13.382812 20.980468-1.464844.554688-3.859375 1.230469-6.835938 1.230469-4.679687 0-10.816406-1.664063-17.09375-8.058594-4.417969-4.5-8.167969-10.617187-10.851562-17.691406-2.683594-7.070313-3.929688-14.140625-3.609375-20.4375.75-14.636719 9.609375-19.546875 13.382812-20.980469 3.773438-1.429687 13.664063-3.632812 23.929688 6.828125 4.417968 4.503907 8.171875 10.617188 10.851562 17.691407 2.683594 7.074218 3.929688 14.140624 3.609375 20.4375zm0 0" data-original="#000000" class="active-path" data-old_color="#000000" fill="#09D3AC"/><path d="m425.847656 205.679688-109.078125 40.902343 53.117188 134.667969 109.226562-40.527344zm0 0" data-original="#000000" class="active-path" data-old_color="#000000" fill="#09D3AC"/><path d="m490.035156 368.417969-109.222656 40.53125 22.222656 56.347656 108.964844-41.195313zm0 0" data-original="#000000" class="active-path" data-old_color="#000000" fill="#09D3AC"/></g> </svg>
